<svg width="168" height="162" viewBox="0 0 168 162" fill="none" xmlns="http://www.w3.org/2000/svg">
<path d="M144.721 106.629C149.083 114.713 150.304 124.122 148.149 133.051C145.994 141.98 140.616 149.799 133.046 155.008C125.477 160.218 116.249 162.451 107.132 161.279C98.0164 160.107 89.6544 155.612 83.6509 148.658C77.6527 155.626 69.2884 160.134 60.166 161.313C51.0436 162.492 41.8069 160.26 34.2317 155.046C26.6564 149.831 21.2774 142.003 19.1286 133.066C16.9797 124.128 18.2128 114.713 22.5908 106.629C14.6979 103.252 8.21455 97.2538 4.23754 89.6499C0.260527 82.046 -0.966024 73.3028 0.765368 64.8993C2.49676 56.4958 7.0798 48.9478 13.7392 43.5322C20.3987 38.1166 28.7257 35.1658 37.3117 35.179C40.3624 35.1758 43.4011 35.5607 46.3545 36.3243C46.836 26.7851 50.9673 17.7955 57.8941 11.214C64.821 4.63253 74.0138 0.962402 83.572 0.962402C93.1303 0.962402 102.323 4.63253 109.25 11.214C116.177 17.7955 120.308 26.7851 120.79 36.3243C123.742 35.5553 126.781 35.1704 129.832 35.179C138.416 35.1627 146.741 38.1069 153.404 43.5144C160.066 48.9219 164.657 56.4613 166.401 64.8595C168.145 73.2576 166.935 81.9998 162.976 89.6097C159.016 97.2197 152.55 103.231 144.669 106.629H144.721Z" fill="#3F54DB"/>
<path d="M83.6301 110.558C99.7684 110.558 112.851 97.485 112.851 81.3584C112.851 65.2319 99.7684 52.1587 83.6301 52.1587C67.4918 52.1587 54.4092 65.2319 54.4092 81.3584C54.4092 97.485 67.4918 110.558 83.6301 110.558Z" fill="white"/>
<path d="M69.6553 75.0439C70.0998 76.0682 70.8343 76.9403 71.7684 77.5529C72.7025 78.1655 73.7954 78.4919 74.9127 78.4919C76.03 78.4919 77.1229 78.1655 78.057 77.5529C78.9911 76.9403 79.7256 76.0682 80.1702 75.0439" stroke="#3F54DB" stroke-width="3.38" stroke-linecap="round" stroke-linejoin="round"/>
<path d="M86.8901 75.0439C87.3347 76.0682 88.0692 76.9403 89.0033 77.5529C89.9374 78.1655 91.0303 78.4919 92.1476 78.4919C93.2649 78.4919 94.3578 78.1655 95.2919 77.5529C96.226 76.9403 96.9605 76.0682 97.405 75.0439" stroke="#3F54DB" stroke-width="3.38" stroke-linecap="round" stroke-linejoin="round"/>
<path d="M77.3848 83.5654C77.8584 84.629 78.6305 85.5325 79.6074 86.1666C80.5844 86.8007 81.7244 87.1382 82.8893 87.1382C84.0543 87.1382 85.1943 86.8007 86.1712 86.1666C87.1482 85.5325 87.9202 84.629 88.3939 83.5654" stroke="#3F54DB" stroke-width="3.38" stroke-linecap="round" stroke-linejoin="round"/>
</svg>
