<svg width="24" height="24" viewBox="0 0 24 24" fill="none" xmlns="http://www.w3.org/2000/svg">
<path d="M20.7718 15.8073C21.3946 17.0135 21.5674 18.4156 21.2571 19.7457C20.9467 21.0758 20.175 22.2405 19.0895 23.0172C18.004 23.7939 16.6809 24.128 15.373 23.9557C14.0651 23.7835 12.8642 23.1169 12 22.0834C11.1357 23.1169 9.93489 23.7835 8.62701 23.9557C7.31912 24.128 5.99595 23.7939 4.91045 23.0172C3.82494 22.2405 3.05326 21.0758 2.74291 19.7457C2.43257 18.4156 2.60535 17.0135 3.2282 15.8073C2.09829 15.3004 1.17127 14.4046 0.603423 13.271C0.0355712 12.1373 -0.138392 10.8351 0.110855 9.58379C0.360102 8.3325 1.01732 7.20868 1.97172 6.40176C2.92613 5.59484 4.11935 5.15416 5.35026 5.15401C5.78848 5.15286 6.22502 5.2103 6.64911 5.32492C6.70619 3.89275 7.29441 2.53892 8.2908 1.54652C9.28718 0.554126 10.6146 0 11.9954 0C13.3763 0 14.7037 0.554126 15.7 1.54652C16.6964 2.53892 17.2846 3.89275 17.3417 5.32492C17.7657 5.20978 18.2023 5.15233 18.6406 5.15401C19.8723 5.15197 21.0669 5.59109 22.0229 6.39725C22.979 7.20342 23.6378 8.32727 23.8882 9.57914C24.1387 10.831 23.9654 12.1342 23.3976 13.2689C22.8299 14.4035 21.9024 15.3001 20.7718 15.8073Z" fill="#F8F9FA"/>
<path d="M12.0001 16.396C14.3188 16.396 16.1985 14.4448 16.1985 12.0378C16.1985 9.6309 14.3188 7.67969 12.0001 7.67969C9.6814 7.67969 7.80172 9.6309 7.80172 12.0378C7.80172 14.4448 9.6814 16.396 12.0001 16.396Z" fill="url(#paint0_linear_226_405)"/>
<defs>
<linearGradient id="paint0_linear_226_405" x1="12.0001" y1="7.67969" x2="12.0001" y2="16.396" gradientUnits="userSpaceOnUse">
<stop stop-color="#66DBF5"/>
<stop offset="1" stop-color="#0099FF"/>
</linearGradient>
</defs>
</svg>
