<svg id="visual" viewBox="0 0 2500 300" width="2500" height="300" xmlns="http://www.w3.org/2000/svg" xmlns:xlink="http://www.w3.org/1999/xlink" version="1.1"><rect x="0" y="0" width="2500" height="300" fill="#fff"></rect><path d="M0 198L41.7 210.5C83.3 223 166.7 248 250 247.7C333.3 247.3 416.7 221.7 500 196.7C583.3 171.7 666.7 147.3 750 155.7C833.3 164 916.7 205 1000 222.5C1083.3 240 1166.7 234 1250 214.7C1333.3 195.3 1416.7 162.7 1500 153.7C1583.3 144.7 1666.7 159.3 1750 183.7C1833.3 208 1916.7 242 2000 240C2083.3 238 2166.7 200 2250 188.5C2333.3 177 2416.7 192 2458.3 199.5L2500 207L2500 301L2458.3 301C2416.7 301 2333.3 301 2250 301C2166.7 301 2083.3 301 2000 301C1916.7 301 1833.3 301 1750 301C1666.7 301 1583.3 301 1500 301C1416.7 301 1333.3 301 1250 301C1166.7 301 1083.3 301 1000 301C916.7 301 833.3 301 750 301C666.7 301 583.3 301 500 301C416.7 301 333.3 301 250 301C166.7 301 83.3 301 41.7 301L0 301Z" fill="#3F54DB" stroke-linecap="round" stroke-linejoin="miter"></path></svg>